<svg width="65" height="91" viewBox="0 0 65 91" fill="none" xmlns="http://www.w3.org/2000/svg">
<g clip-path="url(#clip0_1310_13965)">
<path d="M32.5003 55.0745C26.6171 55.0745 21.0865 52.7606 16.9264 48.5587C12.7664 44.3568 10.4756 38.7705 10.4756 32.8281C10.4756 26.8857 12.7664 21.2985 16.9264 17.0966C21.0865 12.8947 26.6171 10.5808 32.5003 10.5808C38.3835 10.5808 43.915 12.8947 48.0742 17.0966C52.2342 21.2985 54.525 26.8848 54.525 32.8281C54.525 38.7714 52.2342 44.3568 48.0742 48.5587C43.9141 52.7606 38.3835 55.0745 32.5003 55.0745ZM32.5003 13.2304C27.3178 13.2304 22.4457 15.2686 18.7816 18.9705C15.1176 22.6714 13.0988 27.5934 13.0988 32.8272C13.0988 38.061 15.1167 42.983 18.7816 46.684C22.4457 50.3849 27.3178 52.424 32.5003 52.424C37.6828 52.424 42.5549 50.3858 46.2189 46.684C49.883 42.983 51.9018 38.0619 51.9018 32.8272C51.9018 27.5925 49.8839 22.6714 46.2189 18.9705C42.5549 15.2695 37.6828 13.2304 32.5003 13.2304Z" fill="#F1001E"/>
<path d="M32.5 65.6543C30.5634 65.6543 28.9243 64.4898 27.4793 63.4615C26.5232 62.7812 25.6197 62.1398 24.7835 61.9136C23.8895 61.6724 22.7524 61.7722 21.5497 61.8773C19.7348 62.0364 17.8586 62.2016 16.2456 61.2589C14.6082 60.3021 13.7738 58.4847 13.0364 56.8821C12.5343 55.7892 12.0594 54.7564 11.4235 54.1141C10.7876 53.4718 9.76592 52.9929 8.68305 52.4849C7.09549 51.741 5.29713 50.8973 4.34984 49.2434C3.41654 47.6142 3.58011 45.7191 3.73755 43.8859C3.84252 42.671 3.94048 41.5225 3.70169 40.6196C3.47864 39.7758 2.84274 38.8632 2.16923 37.8966C1.15284 36.438 0 34.7832 0 32.8271C0 30.8711 1.15284 29.2163 2.17098 27.7559C2.84449 26.7902 3.47952 25.8776 3.70344 25.033C3.94223 24.13 3.84339 22.9815 3.7393 21.7667C3.58186 19.9334 3.41829 18.0383 4.35159 16.4092C5.29887 14.7553 7.09811 13.9124 8.6848 13.1676C9.76679 12.6605 10.7893 12.1807 11.4252 11.5384C12.0611 10.8961 12.5352 9.86422 13.0381 8.77046C13.7746 7.16691 14.61 5.35045 16.2474 4.39362C17.8594 3.45093 19.7365 3.61615 21.5515 3.77517C22.7551 3.88119 23.8913 3.98103 24.7852 3.73895C25.6206 3.51366 26.5241 2.87136 27.481 2.19107C28.9243 1.16445 30.5634 0 32.5 0C34.4366 0 36.0757 1.16533 37.5207 2.19283C38.4768 2.87313 39.3803 3.51454 40.2156 3.74072C41.1096 3.98191 42.2458 3.88208 43.4494 3.77694C45.2644 3.61791 47.1406 3.4527 48.7535 4.39539C50.3909 5.35221 51.2254 7.16956 51.9627 8.77222C52.4648 9.86511 52.9398 10.8979 53.5757 11.5402C54.2116 12.1825 55.2332 12.6614 56.3161 13.1694C57.9036 13.9133 59.702 14.757 60.6493 16.4109C61.5826 18.0401 61.419 19.9352 61.2616 21.7684C61.1566 22.9832 61.0586 24.1318 61.2974 25.0347C61.5205 25.8785 62.1564 26.7911 62.8299 27.7568C63.8472 29.2172 65.0009 30.872 65.0009 32.828C65.0009 34.7841 63.848 36.4389 62.8299 37.8993C62.1564 38.865 61.5214 39.7776 61.2974 40.6222C61.0586 41.5252 61.1575 42.6737 61.2616 43.8885C61.419 45.7218 61.5826 47.6169 60.6493 49.246C59.702 50.8999 57.9028 51.7428 56.3161 52.4876C55.2341 52.9947 54.2116 53.4744 53.5757 54.1167C52.9398 54.759 52.4657 55.791 51.9627 56.8847C51.2262 58.4883 50.3909 60.3047 48.7535 61.2616C47.1406 62.2042 45.2644 62.039 43.4494 61.88C42.2458 61.774 41.1096 61.6741 40.2156 61.9162C39.3803 62.1415 38.4768 62.7838 37.5198 63.4641C36.074 64.4916 34.4357 65.6569 32.4991 65.6569L32.5 65.6543ZM23.4251 59.1147C24.1135 59.1147 24.7975 59.1747 25.4614 59.3532C26.748 59.7004 27.8878 60.5106 28.989 61.2942C30.2258 62.1733 31.3944 63.0038 32.5 63.0038C33.6056 63.0038 34.7742 62.1733 36.011 61.2942C37.1131 60.5106 38.2528 59.7013 39.5386 59.3532C40.8787 58.9919 42.3009 59.1164 43.6768 59.2375C45.1506 59.3665 46.5432 59.4893 47.4397 58.9653C48.3599 58.4282 48.9538 57.1347 49.5827 55.7662C50.1591 54.5117 50.7557 53.2147 51.7196 52.2402C52.6844 51.2657 53.9684 50.664 55.2105 50.0818C56.5654 49.4466 57.845 48.8467 58.3777 47.9172C58.8964 47.0125 58.7748 45.606 58.6471 44.1164C58.5273 42.7267 58.404 41.2893 58.7617 39.9366C59.1055 38.637 59.9076 37.4858 60.6834 36.3735C61.5537 35.1242 62.3759 33.9448 62.3759 32.8271C62.3759 31.7095 61.5537 30.5301 60.6834 29.2808C59.9076 28.1676 59.1063 27.0164 58.7617 25.7177C58.404 24.3641 58.5273 22.9276 58.6471 21.5378C58.7748 20.0492 58.8964 18.6426 58.3777 17.737C57.8459 16.8076 56.5654 16.2077 55.2105 15.5725C53.9684 14.9903 52.6844 14.3877 51.7196 13.4141C50.7548 12.4396 50.1591 11.1426 49.5827 9.88808C48.9538 8.51954 48.3599 7.22699 47.4397 6.68894C46.544 6.16503 45.1515 6.28783 43.6768 6.41682C42.3009 6.53786 40.8778 6.66244 39.5386 6.30109C38.252 5.95387 37.1122 5.14371 36.011 4.36005C34.7742 3.48097 33.6056 2.65049 32.5 2.65049C31.3944 2.65049 30.2258 3.48097 28.989 4.36005C27.8869 5.14371 26.7472 5.95299 25.4614 6.30109C24.1213 6.66244 22.6991 6.53786 21.3232 6.41682C19.8494 6.28695 18.4568 6.16503 17.5603 6.68894C16.6401 7.22699 16.0462 8.51954 15.4173 9.88808C14.8409 11.1426 14.2443 12.4396 13.2804 13.4141C12.3156 14.3886 11.0316 14.9903 9.78954 15.5725C8.43464 16.2077 7.15497 16.8076 6.62228 17.737C6.10359 18.6417 6.22517 20.0483 6.35288 21.5378C6.47271 22.9276 6.59604 24.365 6.23829 25.7185C5.89454 27.0182 5.09245 28.1694 4.3166 29.2817C3.44628 30.5309 2.62407 31.7104 2.62407 32.828C2.62407 33.9457 3.44628 35.1251 4.3166 36.3744C5.09245 37.4876 5.89366 38.6388 6.23829 39.9384C6.59604 41.2919 6.47271 42.7285 6.35288 44.1182C6.22517 45.6069 6.10359 47.0134 6.62228 47.919C7.15409 48.8484 8.43464 49.4483 9.78954 50.0836C11.0316 50.6658 12.3156 51.2683 13.2804 52.242C14.2452 53.2164 14.8409 54.5134 15.4173 55.768C16.0462 57.1365 16.6401 58.4291 17.5603 58.9671C18.456 59.491 19.8485 59.3682 21.3232 59.2392C22.0177 59.1783 22.7236 59.1164 23.4251 59.1164V59.1147Z" fill="#F1001E"/>
<path d="M47.145 91C46.6779 91 46.244 90.7491 46.0087 90.3374L31.5186 64.9882C31.1565 64.3547 31.3717 63.5436 31.9988 63.1779C32.626 62.8121 33.4289 63.0286 33.7911 63.6629L47.0033 86.7769L50.7583 78.3987C50.9901 77.881 51.5237 77.5709 52.0826 77.6265L61.1444 78.5312L49.274 57.7647C48.9118 57.1312 49.127 56.3202 49.7542 55.9544C50.3813 55.5886 51.1843 55.8051 51.5464 56.4395L64.6948 79.4412C64.9405 79.8715 64.9274 80.4043 64.6615 80.8222C64.3947 81.2392 63.9207 81.4715 63.4299 81.4229L52.7614 80.3574L48.3407 90.2208C48.1377 90.6731 47.7013 90.9735 47.2097 90.9982C47.1878 90.9991 47.166 91 47.145 91Z" fill="#F1001E"/>
<path d="M17.855 91C17.8331 91 17.8122 91 17.7903 90.9982C17.2987 90.9735 16.8622 90.674 16.6593 90.2208L12.2386 80.3574L1.57002 81.4229C1.08107 81.4724 0.60524 81.24 0.338459 80.8222C0.0716783 80.4043 0.058558 79.8715 0.305221 79.4412L13.4536 56.4395C13.8157 55.8051 14.6187 55.5886 15.2458 55.9544C15.873 56.3202 16.0881 57.1312 15.726 57.7647L3.85559 78.5312L12.9174 77.6265C13.4763 77.5709 14.0099 77.881 14.2417 78.3987L17.9967 86.7769L31.2089 63.6629C31.571 63.0286 32.374 62.8121 33.0012 63.1779C33.6283 63.5436 33.8435 64.3547 33.4814 64.9882L18.9912 90.3374C18.7559 90.7491 18.3221 91 17.855 91Z" fill="#F1001E"/>
<path d="M28.4935 41.8654C28.1454 41.8654 27.8121 41.7258 27.5655 41.4776L20.3073 34.1463C19.7947 33.6286 19.7947 32.7902 20.3073 32.2724C20.8198 31.7547 21.6508 31.7547 22.1625 32.2724L28.4926 38.6663L42.8367 24.1778C43.3492 23.6601 44.1802 23.6601 44.6919 24.1778C45.2045 24.6956 45.2045 25.534 44.6919 26.0517L29.4198 41.4776C29.174 41.7258 28.8399 41.8654 28.4918 41.8654H28.4935Z" fill="#F1001E"/>
</g>
<defs>
<clipPath id="clip0_1310_13965">
<rect width="65" height="91" fill="white"/>
</clipPath>
</defs>
</svg>
