<svg width="15" height="15" viewBox="0 0 15 15" fill="none" xmlns="http://www.w3.org/2000/svg">
<g clip-path="url(#clip0_669_98)">
<path d="M5.9778 0.158894C7.69396 -0.198852 9.53593 0.0465051 11.0812 0.886258C13.1107 1.96425 14.6211 4.02208 14.9503 6.30706C15.0159 7.57263 15.0951 8.89597 14.6116 10.0958C13.7373 12.5518 11.5021 14.4687 8.93064 14.9207C7.2849 15.0892 5.53867 15.0473 4.06067 14.2052C1.22492 12.7758 -0.458009 9.42942 0.110089 6.29835C0.563459 3.30263 3.00913 0.748542 5.9778 0.158894Z" fill="#B3B3B3"/>
<path d="M6.16285 3.11766C4.47991 3.69543 3.28991 5.34011 3.17044 7.10272C3.16174 7.23094 3.2638 7.33937 3.39198 7.33937H4.28527C4.39842 7.33937 4.49257 7.2539 4.50523 7.14151C4.61047 6.18541 5.0852 5.25859 5.9057 4.72672C7.07433 3.89251 8.71612 4.06347 9.79614 4.961C9.89504 5.04331 9.89979 5.19448 9.8088 5.2855C9.62919 5.46675 9.44959 5.6472 9.26998 5.82766C9.13151 5.96696 9.23042 6.20519 9.42743 6.20519C10.1704 6.20519 10.9133 6.20519 11.6579 6.2044C11.7805 6.2044 11.8794 6.10547 11.8794 5.98279C11.8794 5.2388 11.881 4.49403 11.8802 3.74846C11.8802 3.55138 11.6421 3.45245 11.502 3.59096C11.3548 3.73659 11.2077 3.88301 11.0613 4.02943C10.979 4.11175 10.8469 4.11649 10.7591 4.03893C9.52871 2.94591 7.72155 2.53197 6.16205 3.11607" fill="#404040"/>
<path d="M10.6024 7.70172C10.5249 9.09788 9.57856 10.4378 8.18522 10.7679C7.18511 11.0686 6.14466 10.7315 5.32653 10.1379C5.21972 10.0603 5.20548 9.90439 5.29647 9.80783C5.48952 9.60126 5.68575 9.39706 5.88355 9.19523C6.02123 9.05514 5.92153 8.81928 5.72531 8.81849C4.95228 8.81691 4.17926 8.81691 3.40623 8.81691C3.2836 8.81691 3.18469 8.91584 3.18469 9.03852V11.3623C3.18469 11.5594 3.42285 11.6583 3.56211 11.5198C3.72114 11.3615 3.88097 11.204 4.04 11.0465C4.1215 10.9658 4.25126 10.961 4.3383 11.0354C5.48873 12.0176 7.10283 12.4878 8.57767 12.0398C10.4212 11.5681 11.7877 9.82603 11.8976 7.93758C11.9048 7.81015 11.8027 7.7033 11.6753 7.7033C11.3177 7.7033 10.9608 7.7033 10.6024 7.70093V7.70172Z" fill="#404040"/>
</g>
<defs>
<clipPath id="clip0_669_98">
<rect width="15" height="15" fill="white"/>
</clipPath>
</defs>
</svg>
