<svg width="15" height="15" viewBox="0 0 15 15" fill="none" xmlns="http://www.w3.org/2000/svg">
<path d="M7.5 14.9995C11.6421 14.9995 15 11.6417 15 7.49973C15 3.35774 11.6421 0 7.5 0C3.35786 0 0 3.35774 0 7.49973C0 11.6417 3.35786 14.9995 7.5 14.9995Z" fill="#B3B3B3"/>
<path d="M8.34522 11.959C8.41451 11.492 8.09211 11.0573 7.62511 10.988C7.15811 10.9187 6.72336 11.2411 6.65406 11.7081C6.58477 12.1751 6.90717 12.6099 7.37417 12.6792C7.84117 12.7485 8.27592 12.4261 8.34522 11.959Z" fill="#404040"/>
<path d="M8.71314 3.51156L8.07892 9.57423C8.04802 9.86804 7.8003 10.0914 7.50488 10.0914H7.49458C7.19915 10.0914 6.95143 9.86804 6.92053 9.57423L6.28632 3.51156C6.28632 2.84805 6.82404 2.3103 7.48753 2.3103H7.51192C8.17541 2.3103 8.71314 2.84805 8.71314 3.51156Z" fill="#404040"/>
</svg>
