<svg width="71" height="68" viewBox="0 0 71 68" fill="none" xmlns="http://www.w3.org/2000/svg">
<g clip-path="url(#clip0_1310_13948)">
<path d="M30.8432 60.5969C22.6013 60.5969 14.8522 57.4449 9.02327 51.7232C-3.00776 39.91 -3.00776 20.6869 9.02327 8.8737C14.8522 3.15202 22.6013 0 30.8432 0C39.085 0 46.8341 3.15202 52.6631 8.8737C64.6941 20.6869 64.6941 39.9083 52.6631 51.7215C46.8341 57.4449 39.085 60.5952 30.8432 60.5952V60.5969ZM30.8432 3.11055C23.4478 3.11055 16.4943 5.93769 11.2637 11.0735C0.468147 21.6736 0.468147 38.9233 11.2637 49.5234C16.4943 54.6592 23.4461 57.4864 30.8432 57.4864C38.2402 57.4864 45.1921 54.6575 50.4226 49.5234C61.2182 38.9233 61.2182 21.6736 50.4226 11.0735C45.1921 5.93769 38.2402 3.11055 30.8432 3.11055Z" fill="#F1001E"/>
<path d="M69.4164 67.9999C69.0117 67.9999 68.6051 67.8478 68.2971 67.5437L51.5776 51.1269C50.9598 50.5204 50.9598 49.5354 51.5776 48.9271C52.1971 48.3205 53.1985 48.3205 53.818 48.9271L70.5375 65.3439C71.1553 65.9504 71.1553 66.9354 70.5375 67.5437C70.2278 67.8478 69.823 67.9999 69.4182 67.9999H69.4164Z" fill="#F1001E"/>
<path d="M28.1045 42.1341C27.7507 42.1341 27.3934 42.0184 27.0995 41.7799L17.9566 34.3975C17.2808 33.8515 17.184 32.8716 17.7401 32.208C18.2963 31.5445 19.2941 31.4494 19.97 31.9955L27.8968 38.3963L43.7733 19.6622C44.333 19.002 45.3309 18.9122 46.0032 19.4617C46.6755 20.0112 46.767 20.9911 46.2073 21.6512L29.3241 41.5742C29.0108 41.9441 28.5603 42.1341 28.1062 42.1341H28.1045Z" fill="#F1001E"/>
</g>
<defs>
<clipPath id="clip0_1310_13948">
<rect width="71" height="68" fill="white"/>
</clipPath>
</defs>
</svg>
