<svg width="103" height="65" viewBox="0 0 103 65" fill="none" xmlns="http://www.w3.org/2000/svg">
<g clip-path="url(#clip0_1310_13953)">
<path d="M24.714 5.84036L15.2447 0.168224C14.9731 0.00452262 14.6421 -0.0379972 14.3387 0.0534204C14.0353 0.142712 13.7807 0.357437 13.6385 0.642319L0.133621 27.957C-0.167667 28.5651 0.0529946 29.3155 0.634352 29.6621L10.1016 35.3385C10.2798 35.4448 10.4835 35.5 10.6872 35.5C10.7954 35.5 10.9015 35.4852 11.0076 35.4533C11.311 35.364 11.5656 35.1493 11.7077 34.8644L25.2147 7.54541C25.516 6.93737 25.2954 6.18903 24.714 5.84036ZM22.8405 7.32005L10.2331 32.8192L2.50573 28.1866L15.1131 2.68965L22.8426 7.31793L22.8405 7.32005Z" fill="#F1001E"/>
<path d="M102.864 27.9505L89.3614 0.63575C89.2214 0.350867 88.9646 0.136142 88.6612 0.0468507C88.3578 -0.0424409 88.0268 7.89368e-05 87.7552 0.161654L78.2838 5.83379C77.7024 6.18246 77.4817 6.9308 77.783 7.53884L91.2901 34.8599C91.4301 35.1448 91.6868 35.3595 91.9902 35.4488C92.0942 35.4807 92.2024 35.4956 92.3106 35.4956C92.5143 35.4956 92.718 35.4403 92.8962 35.334L102.363 29.6576C102.945 29.309 103.165 28.5606 102.864 27.9526V27.9505ZM100.49 28.1779L92.7625 32.8105L80.1551 7.31136L87.8846 2.68308L100.488 28.1779H100.49Z" fill="#F1001E"/>
<path d="M83.5036 39.4222L48.8556 18.6534C48.4058 18.3834 47.8456 18.3813 47.3937 18.6491L45.6687 19.6675C44.8625 20.1437 43.8101 20.7517 42.8044 21.2386C41.578 21.8317 40.1352 22.1613 38.2638 22.2718C37.0693 22.3441 34.2156 22.3887 33.5493 21.2662C33.248 20.7624 33.3372 20.3329 33.8294 19.9162L47.799 8.14249C48.5479 7.51108 49.5006 7.16241 50.4808 7.16241H59.1354C60.5909 7.16241 61.9913 7.59824 63.1901 8.42525L66.9159 10.9956C68.609 12.1649 70.5971 12.7814 72.6658 12.7814C74.4947 12.7814 76.2876 12.2882 77.8513 11.3549L78.4348 11.0062L77.4333 8.98013L76.7119 9.41171C75.4941 10.1409 74.0937 10.5279 72.6658 10.5279C71.0554 10.5279 69.5086 10.0474 68.191 9.13746L64.4652 6.56714C62.8909 5.48076 61.0492 4.90674 59.1375 4.90674H50.483C48.9744 4.90674 47.5083 5.44249 46.354 6.41406L32.3803 18.1899C31.0563 19.3103 30.7571 20.9665 31.6185 22.4121C32.5861 24.0428 34.8033 24.7316 38.3975 24.5147C40.5723 24.3851 42.2845 23.9875 43.7846 23.2604C44.8603 22.7374 45.9658 22.0996 46.8102 21.6021L47.8732 20.975C48.0239 20.8857 48.2106 20.8857 48.3612 20.975L82.3515 41.3483C83.0963 41.7927 83.6246 42.5049 83.8368 43.351C84.0489 44.195 83.9195 45.0709 83.4739 45.8193C82.5531 47.3606 80.5523 47.8666 79.0119 46.9439L74.9976 44.5373C74.9976 44.5373 74.9891 44.5309 69.916 41.4908C69.3834 41.1719 68.6918 41.3462 68.3735 41.8798C68.0552 42.4134 68.2292 43.1065 68.7597 43.4254L73.8264 46.4613C75.3646 47.3819 75.8696 49.3867 74.9488 50.9323C74.0301 52.4715 72.0271 52.9775 70.4846 52.0569C70.4167 52.0165 70.194 51.8826 69.3771 51.3915C68.2632 50.7239 66.6846 49.7779 66.5 49.6652C66.4873 49.6567 66.4703 49.6461 66.4554 49.6376L63.0691 47.6072C62.8124 47.452 62.509 47.4074 62.2183 47.4818C61.9276 47.5562 61.6815 47.739 61.5287 47.9963C61.3739 48.2535 61.3293 48.5554 61.4036 48.8467C61.4757 49.1379 61.6582 49.3846 61.917 49.5398L65.2948 51.5637L65.3352 51.5892C66.8458 52.5161 67.336 54.5146 66.4257 56.041C65.5049 57.5845 63.5041 58.0884 61.9637 57.1657L57.9727 54.7718L56.2223 53.7237C55.9634 53.5685 55.6621 53.5239 55.3693 53.5983C55.0787 53.6706 54.8325 53.8534 54.6798 54.1106C54.3615 54.6443 54.5355 55.3373 55.068 55.6562L56.8142 56.7022C58.3249 57.6249 58.8129 59.6212 57.9006 61.1519C56.9819 62.6933 54.9789 63.1971 53.4385 62.2766L50.6506 60.6055L49.4603 62.5147L52.2864 64.207C53.15 64.7257 54.1175 64.9915 55.0999 64.9915C55.5497 64.9915 56.0016 64.9362 56.4493 64.8235C57.8751 64.4642 59.076 63.5713 59.8314 62.3063C60.4339 61.2986 60.697 60.1208 60.5846 58.9621L60.8095 59.0961C62.0677 59.8508 63.5465 60.0698 64.9723 59.7126C66.3982 59.3533 67.5991 58.4604 68.3544 57.1954C68.957 56.1835 69.2201 55.0078 69.1097 53.8513L69.3346 53.9852C71.9359 55.5457 75.3222 54.6932 76.8796 52.0846C77.48 51.079 77.7431 49.9033 77.6328 48.7404L77.8556 48.8743C79.1138 49.6312 80.5926 49.8502 82.0184 49.4909C83.4442 49.1316 84.6473 48.2387 85.4026 46.9737C86.1579 45.7087 86.3765 44.2248 86.0158 42.794C85.653 41.3611 84.7618 40.162 83.5058 39.4137L83.5036 39.4222Z" fill="#F1001E"/>
<path d="M49.6994 49.1868C48.6046 48.5639 47.3379 48.3385 46.1009 48.5426C46.712 46.1658 45.6426 43.6061 43.489 42.3794C42.2287 41.6629 40.7838 41.4758 39.3919 41.8436C39.4259 41.2462 39.3622 40.651 39.2031 40.0727C38.8127 38.6483 37.894 37.4662 36.621 36.7413C34.5735 35.572 31.9807 35.8611 30.2303 37.4301C29.755 36.2565 28.8808 35.2658 27.7521 34.6217C26.4663 33.8882 24.9917 33.6713 23.6041 34.0136C22.2292 34.3516 21.1004 35.1893 20.4299 36.3713L16.6278 43.0703C15.9382 44.2864 15.8045 45.7108 16.248 47.0821C16.6829 48.4236 17.6144 49.5567 18.8683 50.2689C20.2326 51.047 21.8239 51.2384 23.2667 50.8068C23.3431 52.7096 24.3912 54.4508 26.0398 55.3904C27.6587 56.3089 29.5831 56.3514 31.2296 55.5159C31.5351 57.1082 32.5026 58.4667 33.9072 59.2682C35.5198 60.1867 37.4442 60.2271 39.0949 59.3916C39.4004 60.986 40.3679 62.3467 41.7747 63.146C42.6149 63.6244 43.5421 63.8689 44.482 63.8689C44.9721 63.8689 45.4644 63.803 45.9481 63.669C47.3697 63.2779 48.5515 62.3573 49.275 61.0796L51.7596 56.7022C53.2575 54.0596 52.3303 50.6878 49.6951 49.1847L49.6994 49.1868ZM49.8097 55.5903L47.3251 59.9677C46.8965 60.7224 46.1985 61.2667 45.3562 61.4984C44.5202 61.7301 43.6439 61.6196 42.8886 61.188C42.1354 60.7607 41.5922 60.0591 41.3609 59.2172C41.1297 58.3775 41.24 57.4994 41.6707 56.7447L44.1553 52.3673C44.7536 51.3128 45.8548 50.7196 46.9878 50.7196C47.5331 50.7196 48.0847 50.8557 48.5918 51.1448C50.1513 52.0335 50.6987 54.0277 49.8118 55.5924L49.8097 55.5903ZM43.6015 48.7829L39.4577 56.0878C38.5708 57.6504 36.5806 58.1967 35.0212 57.3102C34.2701 56.8829 33.729 56.1856 33.4956 55.35C33.2601 54.5082 33.3704 53.6259 33.8012 52.8648L37.947 45.5599C38.5454 44.5054 39.6466 43.9122 40.7796 43.9122C41.3249 43.9122 41.8765 44.0483 42.3815 44.3374C43.1326 44.7647 43.6736 45.4621 43.907 46.2976C44.1425 47.1395 44.0343 48.0239 43.6015 48.7829ZM36.7292 43.1426L31.5861 52.2078C30.7013 53.7683 28.7132 54.3168 27.1516 53.4324C25.5921 52.5437 25.0447 50.5496 25.9295 48.987L31.0747 39.9196C31.5033 39.1628 32.2035 38.6185 33.0458 38.3868C33.3301 38.3081 33.6208 38.2698 33.9094 38.2698C34.4653 38.2698 35.0148 38.4144 35.5134 38.6993C36.2666 39.1287 36.8098 39.8282 37.0411 40.6701C37.2723 41.5077 37.162 42.3879 36.7313 43.1447L36.7292 43.1426ZM28.0406 40.7084L24.2385 47.4074C23.8587 48.077 23.2073 48.5405 22.4053 48.7127C21.599 48.8849 20.7376 48.7446 19.9801 48.3109C19.2121 47.8751 18.6477 47.1969 18.3909 46.4018C18.1406 45.6279 18.2085 44.8392 18.5798 44.1822L22.3819 37.4832C22.7617 36.8135 23.411 36.3501 24.213 36.1779C24.4379 36.129 24.6671 36.1056 24.8962 36.1056C25.4924 36.1056 26.0929 36.2672 26.6403 36.5776C28.1976 37.4641 28.8257 39.3158 28.0385 40.7062L28.0406 40.7084Z" fill="#F1001E"/>
<path d="M17.3287 39.9027L18.8734 37.1836L18.8458 37.1134C18.2687 35.621 17.1993 34.3475 15.8308 33.5269L13.987 32.4128L12.9834 34.441L14.6744 35.4573C15.7459 36.0993 16.5543 37.1602 16.8938 38.3635L17.3266 39.9006L17.3287 39.9027Z" fill="#F1001E"/>
<path d="M25.1536 11.3549C26.7216 12.2946 28.5166 12.7899 30.3476 12.7899C30.3476 12.7899 30.3519 12.7899 30.354 12.7899C32.4185 12.7899 34.4065 12.1712 36.0997 11.002L40.4853 7.97454C40.9351 7.66415 41.4635 7.50045 42.013 7.50045C42.2124 7.49407 42.397 7.52171 42.5731 7.55997L43.286 7.75344L45.3823 5.98674L43.3094 5.42123C42.8893 5.30643 42.4543 5.24902 42.0172 5.24902C41.0094 5.24902 40.0419 5.55091 39.2144 6.12068L34.8288 9.14809C33.5112 10.058 31.9644 10.5385 30.354 10.5385C28.9261 10.5385 27.5257 10.1537 26.3079 9.42234L25.5737 8.98226L24.5723 11.0062L25.1536 11.3549Z" fill="#F1001E"/>
<path d="M87.1722 33.5268C85.5915 34.475 84.4458 35.976 83.945 37.7554L83.752 38.4379L85.6573 39.9665L86.1092 38.3656C86.4466 37.1601 87.2571 36.1014 88.3285 35.4594L90.0196 34.4431L89.0181 32.4192L87.1722 33.529V33.5268Z" fill="#F1001E"/>
</g>
<defs>
<clipPath id="clip0_1310_13953">
<rect width="103" height="65" fill="white"/>
</clipPath>
</defs>
</svg>
