<svg width="25" height="25" viewBox="0 0 25 25" fill="none" xmlns="http://www.w3.org/2000/svg">
<path d="M22.3445 18.4554C21.5429 17.6478 19.6013 16.4691 18.6593 15.9941C17.4326 15.3762 17.3317 15.3258 16.3675 16.0421C15.7243 16.5201 15.2967 16.9471 14.5441 16.7866C13.7914 16.6261 12.1558 15.721 10.7236 14.2935C9.2914 12.8659 8.33376 11.183 8.17272 10.4329C8.01169 9.68276 8.44583 9.26025 8.91935 8.61564C9.58672 7.70702 9.53624 7.55559 8.96579 6.32896C8.52105 5.37491 7.30797 3.45168 6.49723 2.65412C5.62994 1.7975 5.62994 1.94893 5.07111 2.18113C4.61615 2.37254 4.17968 2.60521 3.76716 2.87622C2.95945 3.41281 2.51117 3.85854 2.19767 4.52839C1.88418 5.19824 1.74334 6.76863 3.36229 9.70951C4.98125 12.6504 6.1171 14.1542 8.46804 16.4984C10.819 18.8426 12.6268 20.1031 15.2695 21.5851C18.5387 23.416 19.7927 23.0591 20.4646 22.7461C21.1365 22.4331 21.5843 21.9889 22.1219 21.1813C22.3936 20.7695 22.6268 20.3335 22.8186 19.8789C23.0513 19.3222 23.2027 19.3222 22.3445 18.4554Z" stroke="#B3B3B3" stroke-width="1.5" stroke-miterlimit="10"/>
</svg>
