<svg width="31" height="31" viewBox="0 0 31 31" fill="none" xmlns="http://www.w3.org/2000/svg">
<circle cx="15.5" cy="15.5" r="10.9602" transform="rotate(-45 15.5 15.5)" fill="white"/>
<path d="M23.3181 16.3622L8.43758 16.3622C8.01139 16.3622 7.66681 15.9768 7.66681 15.5001C7.66681 15.0234 8.01139 14.6379 8.43758 14.6379L23.3181 14.6379C23.7443 14.6379 24.0889 15.0234 24.0889 15.5001C24.0889 15.9768 23.7443 16.3622 23.3181 16.3622Z" fill="#3A3A3A"/>
<path d="M15.0156 22.9403L15.0156 8.05984C15.0156 7.63364 15.401 7.28906 15.8778 7.28906C16.3545 7.28906 16.7399 7.63364 16.7399 8.05984L16.7399 22.9403C16.7399 23.3665 16.3545 23.7111 15.8777 23.7111C15.401 23.7111 15.0156 23.3665 15.0156 22.9403Z" fill="#3A3A3A"/>
</svg>
