<svg width="86" height="98" viewBox="0 0 86 98" fill="none" xmlns="http://www.w3.org/2000/svg">
<path d="M42.9995 98C39.5457 98 36.5172 95.6581 35.6433 92.3041C35.5647 92.0004 35.2873 91.7888 34.9729 91.7888H32.5963C31.8334 91.7888 31.2092 91.1676 31.2092 90.4085V77.9859C31.2092 73.3758 28.2362 70.7119 24.4679 67.3348C19.1507 62.5636 12.5343 56.6376 12.4834 42.7934C12.4834 42.7934 12.4834 42.7474 12.4834 42.7198C12.4742 34.6681 15.6183 27.0858 21.3423 21.3714C26.3081 16.4116 32.6194 13.3842 39.5965 12.6204C39.6613 12.6112 39.7214 12.602 39.7815 12.5928C39.8185 12.5882 39.8555 12.579 39.8925 12.5744C40.9374 12.4732 41.9823 12.418 42.9949 12.418C44.0075 12.418 45.0524 12.4686 46.0974 12.5744C46.1298 12.5744 46.1668 12.5836 46.2037 12.5928C46.2638 12.602 46.324 12.6112 46.3841 12.6204C53.3658 13.3842 59.6817 16.407 64.6521 21.3714C70.3762 27.0858 73.5203 34.6681 73.5064 42.7198C73.5064 42.7336 73.5064 42.775 73.5064 42.798C73.4509 56.6376 66.8391 62.5636 61.5265 67.3302C57.7583 70.7119 54.7806 73.3758 54.7806 77.9859V90.4085C54.7806 91.1676 54.1564 91.7888 53.3935 91.7888H51.017C50.7026 91.7888 50.4251 92.0004 50.3465 92.3041C49.4727 95.6581 46.4442 98 42.9903 98H42.9995ZM39.4162 91.7888C39.1665 91.7888 38.94 91.9222 38.8151 92.1338C38.6903 92.3501 38.6903 92.6123 38.8151 92.824C39.689 94.3101 41.2888 95.2349 42.9949 95.2349C44.701 95.2349 46.3055 94.3101 47.1747 92.824C47.2995 92.6123 47.2995 92.3455 47.1747 92.1338C47.0499 91.9176 46.8233 91.7888 46.5736 91.7888H39.407H39.4162ZM34.677 85.5775C34.2932 85.5775 33.9834 85.8858 33.9834 86.2676V88.3381C33.9834 88.7199 34.2932 89.0282 34.677 89.0282H51.3221C51.7059 89.0282 52.0157 88.7199 52.0157 88.3381V86.2676C52.0157 85.8858 51.7059 85.5775 51.3221 85.5775H34.677ZM34.677 79.3662C34.2932 79.3662 33.9834 79.6745 33.9834 80.0564V82.1268C33.9834 82.5087 34.2932 82.8169 34.677 82.8169H51.3221C51.7059 82.8169 52.0157 82.5087 52.0157 82.1268V80.0564C52.0157 79.6745 51.7059 79.3662 51.3221 79.3662H34.677ZM42.9995 15.1831C42.0609 15.1831 41.1131 15.2291 40.1791 15.3258C40.1236 15.3304 40.0728 15.3396 40.0173 15.3488L39.9526 15.358C25.8782 16.8993 15.2622 28.6869 15.2576 42.7842C15.3085 55.4045 21.1574 60.6496 26.322 65.2782C29.8129 68.4068 33.1049 71.3606 33.8262 76.0213C33.8771 76.3572 34.1684 76.6057 34.5105 76.6057H51.484C51.8261 76.6057 52.1174 76.3572 52.1683 76.0213C52.8895 71.3606 56.1862 68.4068 59.6724 65.2782C64.8371 60.6496 70.686 55.4045 70.7369 42.7888C70.7369 28.6869 60.1163 16.8947 46.0373 15.358L45.9726 15.3488C45.9217 15.3396 45.8708 15.3304 45.8154 15.3258C44.8814 15.2291 43.9335 15.1831 42.9949 15.1831H42.9995Z" fill="#F1001E"/>
<path d="M43.0004 6.90141C42.2375 6.90141 41.6133 6.28028 41.6133 5.52113V1.38028C41.6133 0.621127 42.2375 0 43.0004 0C43.7633 0 44.3875 0.621127 44.3875 1.38028V5.52113C44.3875 6.28028 43.7633 6.90141 43.0004 6.90141Z" fill="#F1001E"/>
<path d="M1.3871 44.169C0.624194 44.169 0 43.5479 0 42.7887C0 42.0296 0.624194 41.4084 1.3871 41.4084H5.54839C6.31129 41.4084 6.93548 42.0296 6.93548 42.7887C6.93548 43.5479 6.31129 44.169 5.54839 44.169H1.3871Z" fill="#F1001E"/>
<path d="M80.4515 44.169C79.6886 44.169 79.0645 43.5479 79.0645 42.7887C79.0645 42.0296 79.6886 41.4084 80.4515 41.4084H84.6128C85.3757 41.4084 85.9999 42.0296 85.9999 42.7887C85.9999 43.5479 85.3757 44.169 84.6128 44.169H80.4515Z" fill="#F1001E"/>
<path d="M18.0318 17.2535C17.6619 17.2535 17.3151 17.1108 17.0516 16.8486L12.8903 12.7077C12.6267 12.4455 12.4834 12.1004 12.4834 11.7323C12.4834 11.3643 12.6267 11.0192 12.8903 10.7569C13.1538 10.4947 13.5006 10.3521 13.8705 10.3521C14.2404 10.3521 14.5872 10.4947 14.8507 10.7569L19.012 14.8978C19.2755 15.16 19.4189 15.5051 19.4189 15.8732C19.4189 16.2413 19.2755 16.5863 19.012 16.8486C18.7485 17.1108 18.4017 17.2535 18.0318 17.2535Z" fill="#F1001E"/>
<path d="M74.2095 73.1548C73.8396 73.1548 73.4929 73.0122 73.2293 72.7499L69.068 68.6091C68.8045 68.3468 68.6611 68.0018 68.6611 67.6337C68.6611 67.2656 68.8045 66.9206 69.068 66.6583C69.3316 66.396 69.6783 66.2534 70.0482 66.2534C70.4181 66.2534 70.7649 66.396 71.0284 66.6583L75.1897 70.7991C75.4533 71.0614 75.5966 71.4065 75.5966 71.7745C75.5966 72.1426 75.4533 72.4877 75.1897 72.7499C74.9262 73.0122 74.5794 73.1548 74.2095 73.1548Z" fill="#F1001E"/>
<path d="M67.9682 17.2535C67.5983 17.2535 67.2515 17.1108 66.9879 16.8486C66.7244 16.5863 66.5811 16.2413 66.5811 15.8732C66.5811 15.5051 66.7244 15.16 66.9879 14.8978L71.1492 10.7569C71.4128 10.4947 71.7595 10.3521 72.1294 10.3521C72.4993 10.3521 72.8461 10.4947 73.1097 10.7569C73.3732 11.0192 73.5165 11.3643 73.5165 11.7323C73.5165 12.1004 73.3732 12.4455 73.1097 12.7077L68.9484 16.8486C68.6848 17.1108 68.338 17.2535 67.9682 17.2535Z" fill="#F1001E"/>
<path d="M11.7904 73.1548C11.4205 73.1548 11.0738 73.0122 10.8102 72.7499C10.5467 72.4877 10.4033 72.1426 10.4033 71.7745C10.4033 71.4065 10.5467 71.0614 10.8102 70.7991L14.9715 66.6583C15.235 66.396 15.5818 66.2534 15.9517 66.2534C16.3216 66.2534 16.6684 66.396 16.9319 66.6583C17.1955 66.9206 17.3388 67.2656 17.3388 67.6337C17.3388 68.0018 17.1955 68.3468 16.9319 68.6091L12.7706 72.7499C12.5071 73.0122 12.1603 73.1548 11.7904 73.1548Z" fill="#F1001E"/>
<path d="M43.4577 64.8825C43.319 64.8825 43.1849 64.8825 43.0462 64.8733C42.1538 64.8733 41.2892 64.8227 40.3691 64.7169C39.8189 64.657 39.3611 64.2752 39.1993 63.7461L38.3439 60.9303C38.2746 60.7048 38.0942 60.53 37.8677 60.4656C37.4608 60.3506 37.0447 60.2217 36.6285 60.0745C36.5546 60.0469 36.476 60.0331 36.3974 60.0331C36.2494 60.0331 36.1014 60.0791 35.9766 60.1757L33.5723 61.9931C33.3273 62.1771 33.036 62.2738 32.7308 62.2738C32.4996 62.2738 32.2731 62.2139 32.0696 62.1035C30.493 61.2477 29.0226 60.2079 27.7003 59.0163C27.2841 58.639 27.1362 58.0547 27.3257 57.5256L28.3198 54.765C28.4031 54.5396 28.3568 54.2865 28.2089 54.0979C27.9638 53.7896 27.7141 53.463 27.4737 53.1179C27.3442 52.9338 27.1316 52.8234 26.905 52.8234C26.9004 52.8234 23.8395 52.9154 23.8395 52.9154C23.2708 52.9154 22.7761 52.6072 22.5449 52.1287C21.7774 50.5276 21.2133 48.839 20.8573 47.1091C20.7463 46.5615 20.9728 46.0048 21.4398 45.692L23.9227 44.0218C24.1216 43.8884 24.2371 43.663 24.2279 43.4237C24.2187 43.2259 24.2187 43.028 24.214 42.8302C24.214 42.6323 24.214 42.4299 24.2233 42.2321C24.2279 41.9928 24.1123 41.772 23.9135 41.6385L21.426 39.9868C20.959 39.6739 20.7278 39.1172 20.8341 38.5697C21.1763 36.8444 21.7357 35.1558 22.494 33.5455C22.7252 33.0486 23.2153 32.7541 23.8025 32.7495C23.8025 32.7495 26.8403 32.8231 26.8449 32.8231C27.0714 32.8231 27.2888 32.7127 27.4182 32.5241C27.654 32.1836 27.8991 31.8523 28.1488 31.5349C28.2967 31.3462 28.3383 31.0978 28.2551 30.8723L27.2471 28.1256C27.053 27.5965 27.1963 27.0122 27.6124 26.6349C28.9394 25.4248 30.4005 24.3804 31.9633 23.5246C32.1713 23.4096 32.4025 23.3498 32.6337 23.3498C32.9342 23.3498 33.2209 23.4464 33.466 23.6259L35.8841 25.4294C36.0043 25.5215 36.1523 25.5675 36.3003 25.5675C36.3789 25.5675 36.4575 25.5537 36.5314 25.5261C36.9522 25.3788 37.3683 25.2454 37.766 25.1304C37.9925 25.066 38.1728 24.8911 38.2422 24.6611L39.0837 21.8407C39.2409 21.3116 39.6987 20.9297 40.2442 20.8653C41.0811 20.7641 42.0105 20.7043 42.9999 20.6951C43.8599 20.6951 44.7523 20.7457 45.64 20.8515C46.1856 20.9159 46.6434 21.2932 46.8052 21.8223L47.6652 24.6381C47.7346 24.8635 47.9149 25.0384 48.1414 25.1028C48.5437 25.2132 48.9598 25.3466 49.376 25.4892C49.4499 25.5169 49.5285 25.5307 49.6071 25.5307C49.7551 25.5307 49.9031 25.4846 50.0279 25.388L52.4322 23.5707C52.6773 23.3866 52.9639 23.2854 53.2691 23.2854C53.5003 23.2854 53.7314 23.3452 53.9349 23.4556C55.5116 24.316 56.9819 25.3558 58.3042 26.5475C58.7204 26.9247 58.8683 27.5091 58.6788 28.0382L57.6847 30.7941C57.6014 31.0196 57.6431 31.268 57.7956 31.4567C58.0499 31.7787 58.2996 32.11 58.5308 32.4413C58.6603 32.6253 58.873 32.7357 59.0995 32.7357C59.1041 32.7357 62.165 32.6437 62.165 32.6437C62.7337 32.6437 63.2284 32.952 63.4596 33.4305C64.2271 35.0408 64.7959 36.7293 65.1426 38.4501C65.2536 38.9976 65.0224 39.5543 64.5601 39.8672L62.0818 41.5373C61.883 41.6707 61.7674 41.8962 61.7766 42.1354C61.7859 42.3333 61.7905 42.5311 61.7905 42.729C61.7905 42.9314 61.7905 43.1246 61.7812 43.3225C61.772 43.5617 61.8876 43.7872 62.0864 43.9206L64.5739 45.5769C65.0409 45.8898 65.2721 46.4419 65.1611 46.9894C64.8236 48.7148 64.2641 50.4079 63.5059 52.0183C63.2793 52.5014 62.7846 52.8142 62.2436 52.8142C62.2436 52.8142 59.1596 52.7406 59.155 52.7406C58.9284 52.7406 58.7111 52.851 58.5817 53.0397C58.3551 53.3709 58.1147 53.693 57.8511 54.0243C57.7032 54.2129 57.6616 54.4614 57.7448 54.6868L58.7527 57.4382C58.9469 57.9673 58.8036 58.5516 58.3875 58.9289C57.0697 60.1297 55.604 61.1787 54.032 62.0391C53.8285 62.1495 53.5927 62.2093 53.3616 62.2093C53.061 62.2093 52.7744 62.1127 52.5339 61.9333L50.1157 60.1251C49.9955 60.0331 49.8476 59.9871 49.6996 59.9871C49.621 59.9871 49.5424 60.0009 49.4638 60.0285C49.0523 60.1757 48.6362 60.3092 48.2293 60.4242C48.0027 60.4886 47.8224 60.6634 47.7531 60.8889L46.9116 63.7092C46.7543 64.2384 46.2966 64.6202 45.7464 64.6846C44.9557 64.7813 44.1836 64.8641 43.4484 64.8641L43.4577 64.8825ZM36.0645 56.9965C36.254 56.9965 36.4344 57.0333 36.61 57.1069C37.581 57.521 38.5936 57.8384 39.6108 58.0501C40.1055 58.1559 40.5078 58.5194 40.6511 59.0025L41.4418 61.602C41.525 61.8827 41.7793 62.0759 42.0706 62.0897H42.1769C42.3942 62.1081 42.6116 62.1173 42.8289 62.1173C42.9121 62.1173 42.9953 62.1173 43.0785 62.1127C43.0878 62.1127 43.097 62.1127 43.1063 62.1127C43.393 62.1127 43.7074 62.1035 44.031 62.0851C44.3223 62.0713 44.5766 61.8735 44.6598 61.5928L45.4366 58.9887C45.5799 58.5056 45.9776 58.1375 46.4723 58.0317C47.4895 57.8108 48.4975 57.4888 49.4684 57.0747C49.6441 57.0011 49.8291 56.9643 50.0187 56.9643C50.3192 56.9643 50.6105 57.0609 50.8509 57.2403L53.0795 58.9059C53.2043 58.9979 53.3477 59.0439 53.4956 59.0439C53.6251 59.0439 53.7592 59.0071 53.8748 58.9335C54.4111 58.5884 54.9336 58.2157 55.433 57.8246C55.6688 57.6406 55.7566 57.3277 55.6549 57.0471L54.7302 54.5212C54.5545 54.0381 54.6562 53.5044 55.003 53.1225C55.6965 52.3587 56.3161 51.5214 56.8432 50.638C57.0928 50.2193 57.5691 49.9616 58.0869 49.9616C58.0869 49.9616 60.8889 50.0307 60.8935 50.0307C61.1802 50.0307 61.4391 49.8558 61.5408 49.589C61.7581 49.023 61.9523 48.4341 62.1188 47.8452C62.1974 47.5599 62.0864 47.2517 61.8367 47.0861L59.5526 45.5631C59.1319 45.2825 58.8961 44.7902 58.9423 44.2841C58.9932 43.7412 59.0163 43.2397 59.0163 42.7474C59.0163 42.2413 58.9885 41.7352 58.9331 41.2061C58.8822 40.7045 59.1134 40.2122 59.5341 39.927L61.809 38.3949C62.054 38.2292 62.1696 37.921 62.0864 37.6357C61.9246 37.056 61.7257 36.4717 61.4992 35.892C61.3975 35.6251 61.1385 35.4503 60.8519 35.4503C60.8426 35.4503 58.0222 35.5377 58.0222 35.5377C57.509 35.5285 57.0374 35.28 56.7923 34.8706C56.2745 34.0056 55.6503 33.1728 54.9336 32.3861C54.5868 32.0042 54.4805 31.4705 54.6562 30.992L55.567 28.4661C55.6688 28.1854 55.5763 27.8725 55.3451 27.6885C54.8411 27.2928 54.314 26.9247 53.7777 26.5843C53.6621 26.5107 53.5326 26.4784 53.4078 26.4784C53.2598 26.4784 53.1119 26.5245 52.987 26.6211L50.7677 28.2958C50.5273 28.4799 50.236 28.5765 49.9262 28.5765C49.7366 28.5765 49.5563 28.5397 49.3806 28.4661C48.4189 28.0566 47.4109 27.7391 46.3798 27.5229C45.8851 27.417 45.4875 27.0536 45.3395 26.5705L44.5489 23.9755C44.4656 23.6949 44.2113 23.497 43.9154 23.4878C43.749 23.4786 43.5825 23.4786 43.4207 23.4786C43.2681 23.4786 43.1202 23.4786 42.9676 23.4694H42.9352C42.5931 23.4694 42.274 23.4786 41.9596 23.497C41.6683 23.5108 41.414 23.7087 41.3308 23.9893L40.554 26.5889C40.4107 27.072 40.0131 27.44 39.5183 27.5459C38.4965 27.7667 37.4885 28.0888 36.5176 28.5029C36.3419 28.5765 36.1569 28.6179 35.9674 28.6179C35.6668 28.6179 35.3709 28.5213 35.1305 28.3418L32.9019 26.6763C32.777 26.5843 32.6337 26.5383 32.4857 26.5383C32.3563 26.5383 32.2268 26.5751 32.1112 26.6487C31.5795 26.9938 31.0524 27.3664 30.5531 27.7621C30.3173 27.9461 30.2294 28.259 30.3311 28.5397L31.2559 31.061C31.4316 31.5441 31.3298 32.0778 30.9877 32.4551C30.2895 33.2326 29.6699 34.07 29.1428 34.9488C28.8978 35.3583 28.4123 35.6251 27.8945 35.6251C27.8945 35.6251 25.0971 35.5561 25.0925 35.5561C24.8059 35.5561 24.5469 35.7309 24.4452 35.9978C24.2279 36.5591 24.0337 37.148 23.8673 37.7415C23.7887 38.0268 23.8996 38.3351 24.1493 38.5007L26.4334 40.019C26.8634 40.3043 27.0946 40.7966 27.0437 41.3073C26.9928 41.8088 26.9697 42.3057 26.9697 42.8394C26.9697 43.3639 26.9975 43.8746 27.053 44.3669C27.1084 44.8776 26.8773 45.3699 26.4519 45.6598L24.1724 47.1919C23.9227 47.3575 23.8118 47.6658 23.895 47.951C24.0614 48.5354 24.2603 49.1197 24.4822 49.6948C24.5839 49.9616 24.8428 50.1365 25.1295 50.1365C25.1388 50.1365 27.9592 50.0491 27.9592 50.0491C28.4632 50.0491 28.9394 50.3067 29.1891 50.7162C29.7254 51.6042 30.3496 52.4369 31.0432 53.1915C31.3899 53.5688 31.5009 54.1071 31.3252 54.5902L30.4097 57.1207C30.308 57.4014 30.4005 57.7142 30.6363 57.8983C31.1449 58.2939 31.672 58.6666 32.1991 59.0025C32.3147 59.0761 32.4441 59.1083 32.5736 59.1083C32.7216 59.1083 32.8695 59.0623 32.9944 58.9657L35.2137 57.2863C35.4588 57.1023 35.7454 57.0057 36.0506 57.0057L36.0645 56.9965Z" fill="#F1001E"/>
<path d="M42.9997 52.4507C37.6455 52.4507 33.29 48.1166 33.29 42.7887C33.29 37.4608 37.6455 33.1267 42.9997 33.1267C44.7105 33.1267 46.3889 33.573 47.8592 34.4242C48.5204 34.8061 48.7469 35.6526 48.3632 36.3106C48.1181 36.7338 47.6557 37.0007 47.161 37.0007C46.9206 37.0007 46.6801 36.9363 46.4721 36.8121C45.4179 36.2047 44.2204 35.8873 42.9997 35.8873C39.176 35.8873 36.0642 38.9837 36.0642 42.7887C36.0642 46.5937 39.176 49.6901 42.9997 49.6901C46.8235 49.6901 49.9352 46.5937 49.9352 42.7887C49.9352 42.0295 50.5594 41.4084 51.3223 41.4084C52.0852 41.4084 52.7094 42.0295 52.7094 42.7887C52.7094 48.1166 48.3539 52.4507 42.9997 52.4507Z" fill="#F1001E"/>
</svg>
