<svg width="24" height="24" viewBox="0 0 24 24" fill="none" xmlns="http://www.w3.org/2000/svg">
<path d="M20.7001 22.9805L1.01943 3.29988C0.455755 2.73621 0.50977 1.77072 1.14025 1.14023C1.77074 0.509748 2.73623 0.455733 3.2999 1.01941L22.9806 20.7001C23.5443 21.2637 23.4902 22.2292 22.8598 22.8597C22.2293 23.4902 21.2638 23.5442 20.7001 22.9805Z" fill="#3A3A3A"/>
<path d="M1.01963 20.7001L20.7003 1.01941C21.264 0.455738 22.2295 0.509752 22.86 1.14024C23.4904 1.77072 23.5445 2.73621 22.9808 3.29988L3.30011 22.9805C2.73643 23.5442 1.77094 23.4902 1.14046 22.8597C0.509972 22.2292 0.455957 21.2638 1.01963 20.7001Z" fill="#3A3A3A"/>
</svg>
