<svg width="26" height="38" viewBox="0 0 26 38" fill="none" xmlns="http://www.w3.org/2000/svg">
<path d="M0 13.1698C0 20.4435 13 38 13 38C13 38 26 20.4428 26 13.1698C26 5.89676 20.1799 0 13 0C5.8201 0 0 5.89612 0 13.1698Z" fill="#F1001E"/>
<path d="M6.36476 13.1698C6.36476 14.9525 7.0637 16.6625 8.30797 17.9231C9.55223 19.1836 11.2402 19.8916 13 19.8916C14.7597 19.8916 16.4477 19.1836 17.692 17.9231C18.9362 16.6625 19.6352 14.9525 19.6352 13.1698C19.6352 11.387 18.9362 9.67698 17.692 8.41646C16.4477 7.15595 14.7597 6.44788 13 6.44788C11.2402 6.44788 9.55223 7.15595 8.30797 8.41646C7.0637 9.67698 6.36476 11.387 6.36476 13.1698Z" fill="#F4F3F6"/>
</svg>
